<svg width="1600" height="820" viewBox="0 0 1600 820" fill="none" xmlns="http://www.w3.org/2000/svg">
  <defs>
    <linearGradient id="titleGradient" x1="360" y1="24" x2="1240" y2="98" gradientUnits="userSpaceOnUse">
      <stop stop-color="#0F172A"/>
      <stop offset="1" stop-color="#1E293B"/>
    </linearGradient>
    <linearGradient id="pagesGradient" x1="1390" y1="665" x2="1530" y2="749" gradientUnits="userSpaceOnUse">
      <stop stop-color="#9A3412"/>
      <stop offset="1" stop-color="#EA580C"/>
    </linearGradient>
    <filter id="shadow" x="-20%" y="-20%" width="140%" height="140%">
      <feDropShadow dx="0" dy="8" stdDeviation="10" flood-color="#0F172A" flood-opacity="0.08"/>
    </filter>
    <marker id="arrowBlue" viewBox="0 0 10 10" refX="8" refY="5" markerWidth="8" markerHeight="8" orient="auto-start-reverse">
      <path d="M0 0L10 5L0 10V0Z" fill="#2563EB"/>
    </marker>
    <marker id="arrowGray" viewBox="0 0 10 10" refX="8" refY="5" markerWidth="8" markerHeight="8" orient="auto-start-reverse">
      <path d="M0 0L10 5L0 10V0Z" fill="#64748B"/>
    </marker>
    <marker id="arrowGreen" viewBox="0 0 10 10" refX="8" refY="5" markerWidth="8" markerHeight="8" orient="auto-start-reverse">
      <path d="M0 0L10 5L0 10V0Z" fill="#0F766E"/>
    </marker>
    <marker id="arrowOrange" viewBox="0 0 10 10" refX="8" refY="5" markerWidth="8" markerHeight="8" orient="auto-start-reverse">
      <path d="M0 0L10 5L0 10V0Z" fill="#EA580C"/>
    </marker>
    <style>
      .title {
        font-family: Helvetica;
        font-size: 34px;
        font-weight: 700;
        fill: #FFFFFF;
      }
      .subtitle {
        font-family: Helvetica;
        font-size: 14px;
        font-weight: 500;
        fill: #CBD5E1;
      }
      .pill {
        font-family: Helvetica;
        font-size: 14px;
        font-weight: 700;
        fill: #FFFFFF;
      }
      .card-title {
        font-family: Helvetica;
        font-size: 19px;
        font-weight: 700;
        fill: #0F172A;
      }
      .card-body {
        font-family: Helvetica;
        font-size: 13px;
        font-weight: 500;
        fill: #475569;
      }
      .dark-title {
        font-family: Helvetica;
        font-size: 19px;
        font-weight: 700;
        fill: #FFFFFF;
      }
      .dark-body {
        font-family: Helvetica;
        font-size: 13px;
        font-weight: 500;
        fill: #CBD5E1;
      }
      .pages-body {
        font-family: Helvetica;
        font-size: 13px;
        font-weight: 500;
        fill: #FED7AA;
      }
    </style>
  </defs>

  <rect width="1600" height="820" fill="#FFFFFF"/>

  <rect x="360" y="24" width="880" height="74" rx="24" fill="url(#titleGradient)" filter="url(#shadow)"/>
  <text x="800" y="58" text-anchor="middle" class="title">Fake News Benchmark</text>
  <text x="800" y="79" text-anchor="middle" class="subtitle">Fetch, perturb, evaluate, publish</text>

  <rect x="40" y="140" width="260" height="620" rx="28" fill="#F8FBFF" stroke="#D4E6F8" stroke-width="2"/>
  <rect x="330" y="140" width="840" height="620" rx="28" fill="#ECFDF5" stroke="#6EE7B7" stroke-width="2"/>
  <rect x="1200" y="140" width="360" height="620" rx="28" fill="#FFF7ED" stroke="#FED7AA" stroke-width="2"/>

  <rect x="60" y="165" width="170" height="32" rx="16" fill="#0F172A"/>
  <rect x="350" y="165" width="220" height="32" rx="16" fill="#0F766E"/>
  <rect x="1220" y="165" width="200" height="32" rx="16" fill="#9A3412"/>

  <text x="145" y="185" text-anchor="middle" class="pill">Inputs &amp; Control</text>
  <text x="460" y="185" text-anchor="middle" class="pill">Benchmark Core</text>
  <text x="1320" y="185" text-anchor="middle" class="pill">Storage &amp; Delivery</text>

  <rect x="70" y="240" width="220" height="108" rx="20" fill="#FFFFFF" stroke="#93C5FD" stroke-width="2" filter="url(#shadow)"/>
  <rect x="70" y="390" width="220" height="88" rx="20" fill="#FFFFFF" stroke="#99F6E4" stroke-width="2" filter="url(#shadow)"/>
  <rect x="70" y="510" width="220" height="88" rx="20" fill="#FFFFFF" stroke="#99F6E4" stroke-width="2" filter="url(#shadow)"/>

  <rect x="500" y="220" width="500" height="92" rx="20" fill="url(#titleGradient)" filter="url(#shadow)"/>
  <rect x="360" y="395" width="170" height="94" rx="20" fill="#FFFFFF" stroke="#38BDF8" stroke-width="2" filter="url(#shadow)"/>
  <rect x="560" y="395" width="180" height="94" rx="20" fill="#FFFFFF" stroke="#F59E0B" stroke-width="2" filter="url(#shadow)"/>
  <rect x="770" y="383" width="190" height="118" rx="20" fill="#FFFFFF" stroke="#14B8A6" stroke-width="2" filter="url(#shadow)"/>
  <rect x="990" y="395" width="150" height="94" rx="20" fill="#FFFFFF" stroke="#2DD4BF" stroke-width="2" filter="url(#shadow)"/>
  <rect x="770" y="545" width="190" height="94" rx="20" fill="#FFFBEB" stroke="#F59E0B" stroke-width="2" filter="url(#shadow)"/>

  <rect x="1230" y="395" width="300" height="94" rx="20" fill="#FFFFFF" stroke="#94A3B8" stroke-width="2" filter="url(#shadow)"/>
  <rect x="1230" y="540" width="300" height="100" rx="20" fill="#FFFFFF" stroke="#FB923C" stroke-width="2" filter="url(#shadow)"/>
  <rect x="1230" y="665" width="140" height="84" rx="20" fill="#FFFFFF" stroke="#FDBA74" stroke-width="2" filter="url(#shadow)"/>
  <rect x="1390" y="665" width="140" height="84" rx="20" fill="url(#pagesGradient)" filter="url(#shadow)"/>

  <text x="180" y="278" text-anchor="middle" class="card-title">News Sources</text>
  <text x="180" y="305" text-anchor="middle" class="card-body">Reuters, AP, BBC, NPR, ...</text>

  <text x="180" y="425" text-anchor="middle" class="card-title">Daily Scheduler</text>
  <text x="180" y="452" text-anchor="middle" class="card-body">daily benchmark runs</text>

  <text x="180" y="545" text-anchor="middle" class="card-title">Manual Run</text>
  <text x="180" y="572" text-anchor="middle" class="card-body">CLI and scripts</text>

  <text x="750" y="258" text-anchor="middle" class="dark-title">Benchmark Orchestrator</text>
  <text x="750" y="284" text-anchor="middle" class="dark-body">runs fetch -&gt; perturb -&gt; evaluate</text>

  <text x="445" y="430" text-anchor="middle" class="card-title">News Fetcher</text>
  <text x="445" y="457" text-anchor="middle" class="card-body">fetch + dedupe</text>

  <text x="650" y="430" text-anchor="middle" class="card-title">Variant Generator</text>
  <text x="650" y="457" text-anchor="middle" class="card-body">inject one false claim</text>

  <text x="865" y="429" text-anchor="middle" class="card-title">Search Models</text>
  <text x="865" y="456" text-anchor="middle" class="card-body">search, verify, repair</text>

  <text x="1065" y="430" text-anchor="middle" class="card-title">Scoring</text>
  <text x="1065" y="457" text-anchor="middle" class="card-body">repair score + diagnostics</text>

  <text x="865" y="580" text-anchor="middle" class="card-title">Model Pool</text>
  <text x="865" y="607" text-anchor="middle" class="card-body">OpenAI, Perplexity</text>
  <text x="865" y="627" text-anchor="middle" class="card-body">Anthropic, Gemini</text>

  <text x="1380" y="430" text-anchor="middle" class="card-title">Benchmark DB</text>
  <text x="1380" y="457" text-anchor="middle" class="card-body">SQLite: articles, outputs, scores</text>

  <text x="1380" y="577" text-anchor="middle" class="card-title">Public Export</text>
  <text x="1380" y="604" text-anchor="middle" class="card-body">snapshot + viewer build</text>

  <text x="1300" y="700" text-anchor="middle" class="card-title">Viewer Bundle</text>
  <text x="1300" y="727" text-anchor="middle" class="card-body">viewer/ + data/latest/</text>

  <text x="1460" y="700" text-anchor="middle" class="dark-title">GitHub Pages</text>
  <text x="1460" y="727" text-anchor="middle" class="pages-body">live demo</text>

  <path d="M290 294H320V442H360" stroke="#2563EB" stroke-width="3" fill="none" marker-end="url(#arrowBlue)"/>
  <path d="M290 434H320V266H500" stroke="#64748B" stroke-width="3" stroke-dasharray="8 8" fill="none" marker-end="url(#arrowGray)"/>
  <path d="M290 554H350V286H500" stroke="#64748B" stroke-width="3" stroke-dasharray="8 8" fill="none" marker-end="url(#arrowGray)"/>
  <path d="M530 442H560" stroke="#2563EB" stroke-width="3" fill="none" marker-end="url(#arrowBlue)"/>
  <path d="M740 442H770" stroke="#2563EB" stroke-width="3" fill="none" marker-end="url(#arrowBlue)"/>
  <path d="M865 545V501" stroke="#0F766E" stroke-width="3" fill="none" marker-end="url(#arrowGreen)"/>
  <path d="M960 442H990" stroke="#2563EB" stroke-width="3" fill="none" marker-end="url(#arrowBlue)"/>
  <path d="M1140 442H1230" stroke="#2563EB" stroke-width="3" fill="none" marker-end="url(#arrowBlue)"/>
  <path d="M1380 489V540" stroke="#EA580C" stroke-width="3" fill="none" marker-end="url(#arrowOrange)"/>
  <path d="M1330 640V655H1300V665" stroke="#EA580C" stroke-width="3" fill="none" marker-end="url(#arrowOrange)"/>
  <path d="M1370 707H1390" stroke="#EA580C" stroke-width="3" fill="none" marker-end="url(#arrowOrange)"/>
</svg>
